<svg xmlns="http://www.w3.org/2000/svg" width="75" viewBox="0 0 75 75" height="75" version="1.0"><defs><clipPath id="a"><path d="M 22.121094 8.671875 L 52.808594 8.671875 L 52.808594 47.671875 L 22.121094 47.671875 Z M 22.121094 8.671875"/></clipPath></defs><g clip-path="url(#a)"><path fill="#E4C061" d="M 24.15625 10.714844 L 24.15625 36.621094 L 37.464844 45.246094 L 50.773438 36.621094 L 50.773438 10.714844 Z M 22.121094 9.691406 L 22.121094 8.667969 L 52.808594 8.667969 L 52.808594 37.730469 L 37.464844 47.675781 L 22.121094 37.730469 L 22.121094 9.691406"/></g><path fill="#E4C061" d="M 30.1875 16.925781 L 44.738281 16.925781 L 44.738281 18.972656 L 30.1875 18.972656 L 30.1875 16.925781"/><path fill="#E4C061" d="M 26.582031 13.851562 L 48.335938 13.851562 L 48.335938 15.898438 L 26.582031 15.898438 L 26.582031 13.851562"/><path fill="#E4C061" d="M 43.285156 23.597656 L 43.285156 43.335938 L 41.25 43.335938 L 41.25 23.597656 Z M 30.136719 22.03125 C 35.019531 22.03125 39.90625 22.03125 44.792969 22.03125 C 45.207031 22.03125 45.582031 22.199219 45.855469 22.472656 C 46.125 22.746094 46.292969 23.125 46.292969 23.546875 C 46.292969 23.960938 46.125 24.339844 45.855469 24.613281 C 45.582031 24.886719 45.207031 25.054688 44.792969 25.054688 L 44.738281 25.054688 L 44.738281 27.101562 L 44.792969 27.101562 C 45.769531 27.101562 46.652344 26.703125 47.292969 26.058594 C 47.933594 25.417969 48.328125 24.527344 48.328125 23.546875 C 48.328125 22.566406 47.933594 21.679688 47.292969 21.035156 C 46.652344 20.390625 45.769531 19.992188 44.792969 19.992188 L 30.136719 19.992188 C 29.160156 19.992188 28.273438 20.390625 27.632812 21.035156 C 26.996094 21.679688 26.597656 22.566406 26.597656 23.546875 C 26.597656 24.527344 26.996094 25.417969 27.636719 26.058594 C 28.273438 26.703125 29.160156 27.101562 30.136719 27.101562 L 30.191406 27.101562 L 30.191406 25.054688 L 30.136719 25.054688 C 29.722656 25.054688 29.347656 24.886719 29.074219 24.613281 C 28.800781 24.339844 28.632812 23.960938 28.632812 23.546875 C 28.632812 23.125 28.800781 22.746094 29.074219 22.472656 C 29.34375 22.199219 29.722656 22.03125 30.136719 22.03125 Z M 36.464844 23.597656 L 36.464844 46.078125 L 38.480469 46.109375 L 38.480469 23.597656 Z M 33.675781 23.597656 L 33.675781 43.335938 L 31.640625 43.335938 L 31.640625 23.597656 L 33.675781 23.597656"/><g fill="#444"><g><g><path d="M 6.390625 0 L 5.203125 0 L 5.1875 -3.46875 L 3.90625 -0.53125 L 3.03125 -0.53125 L 1.75 -3.46875 L 1.75 0 L 0.53125 0 L 0.53125 -5.34375 L 2.015625 -5.34375 L 3.46875 -2.171875 L 4.921875 -5.34375 L 6.390625 -5.34375 Z M 6.390625 0" transform="translate(14.323 59.058)"/></g></g></g><g fill="#444"><g><g><path d="M 3.0625 -5.390625 C 3.894531 -5.390625 4.582031 -5.128906 5.125 -4.609375 C 5.675781 -4.085938 5.953125 -3.441406 5.953125 -2.671875 C 5.953125 -1.898438 5.675781 -1.25 5.125 -0.71875 C 4.570312 -0.195312 3.882812 0.0625 3.0625 0.0625 C 2.238281 0.0625 1.550781 -0.195312 1 -0.71875 C 0.457031 -1.238281 0.1875 -1.890625 0.1875 -2.671875 C 0.1875 -3.453125 0.457031 -4.097656 1 -4.609375 C 1.550781 -5.128906 2.238281 -5.390625 3.0625 -5.390625 Z M 3.078125 -4.25 C 2.660156 -4.25 2.304688 -4.097656 2.015625 -3.796875 C 1.722656 -3.492188 1.578125 -3.117188 1.578125 -2.671875 C 1.578125 -2.222656 1.722656 -1.84375 2.015625 -1.53125 C 2.316406 -1.226562 2.671875 -1.078125 3.078125 -1.078125 C 3.492188 -1.078125 3.84375 -1.226562 4.125 -1.53125 C 4.414062 -1.84375 4.5625 -2.222656 4.5625 -2.671875 C 4.5625 -3.117188 4.414062 -3.492188 4.125 -3.796875 C 3.84375 -4.097656 3.492188 -4.25 3.078125 -4.25 Z M 3.078125 -4.25" transform="translate(21.448 59.058)"/></g></g></g><g fill="#444"><g><g><path d="M 5.453125 0 L 4.265625 0 L 1.8125 -3.28125 L 1.8125 0 L 0.53125 0 L 0.53125 -5.34375 L 1.734375 -5.34375 L 4.1875 -2.046875 L 4.1875 -5.34375 L 5.453125 -5.34375 Z M 5.453125 0" transform="translate(27.774 59.058)"/></g></g></g><g fill="#444"><g><g><path d="M 5.34375 -5.34375 L 5.34375 -2.234375 C 5.34375 -1.535156 5.125 -0.976562 4.6875 -0.5625 C 4.25 -0.144531 3.65625 0.0625 2.90625 0.0625 C 2.15625 0.0625 1.554688 -0.144531 1.109375 -0.5625 C 0.660156 -0.976562 0.4375 -1.535156 0.4375 -2.234375 L 0.4375 -5.34375 L 1.796875 -5.34375 L 1.796875 -2.234375 C 1.796875 -1.878906 1.898438 -1.597656 2.109375 -1.390625 C 2.316406 -1.179688 2.582031 -1.078125 2.90625 -1.078125 C 3.238281 -1.078125 3.5 -1.179688 3.6875 -1.390625 C 3.882812 -1.597656 3.984375 -1.878906 3.984375 -2.234375 L 3.984375 -5.34375 Z M 5.34375 -5.34375" transform="translate(33.955 59.058)"/></g></g></g><g fill="#444"><g><g><path d="M 2.578125 -5.40625 C 3.378906 -5.40625 4.082031 -5.203125 4.6875 -4.796875 L 4.171875 -3.75 C 3.898438 -3.90625 3.601562 -4.035156 3.28125 -4.140625 C 2.957031 -4.242188 2.6875 -4.296875 2.46875 -4.296875 C 2.082031 -4.296875 1.890625 -4.164062 1.890625 -3.90625 C 1.890625 -3.738281 1.984375 -3.601562 2.171875 -3.5 C 2.367188 -3.40625 2.601562 -3.320312 2.875 -3.25 C 3.15625 -3.175781 3.429688 -3.085938 3.703125 -2.984375 C 3.984375 -2.878906 4.21875 -2.707031 4.40625 -2.46875 C 4.601562 -2.238281 4.703125 -1.945312 4.703125 -1.59375 C 4.703125 -1.070312 4.5 -0.664062 4.09375 -0.375 C 3.695312 -0.09375 3.1875 0.046875 2.5625 0.046875 C 2.125 0.046875 1.6875 -0.0234375 1.25 -0.171875 C 0.820312 -0.328125 0.445312 -0.539062 0.125 -0.8125 L 0.65625 -1.859375 C 0.925781 -1.617188 1.242188 -1.421875 1.609375 -1.265625 C 1.972656 -1.117188 2.296875 -1.046875 2.578125 -1.046875 C 2.796875 -1.046875 2.96875 -1.082031 3.09375 -1.15625 C 3.21875 -1.238281 3.28125 -1.359375 3.28125 -1.515625 C 3.28125 -1.660156 3.207031 -1.78125 3.0625 -1.875 C 2.925781 -1.976562 2.753906 -2.054688 2.546875 -2.109375 C 2.335938 -2.160156 2.109375 -2.222656 1.859375 -2.296875 C 1.617188 -2.378906 1.394531 -2.46875 1.1875 -2.5625 C 0.976562 -2.664062 0.800781 -2.820312 0.65625 -3.03125 C 0.519531 -3.238281 0.453125 -3.492188 0.453125 -3.796875 C 0.453125 -4.273438 0.644531 -4.660156 1.03125 -4.953125 C 1.425781 -5.253906 1.941406 -5.40625 2.578125 -5.40625 Z M 2.578125 -5.40625" transform="translate(39.922 59.058)"/></g></g></g><g fill="#444"><g><g><path d="M 4.71875 -4.265625 L 1.890625 -4.265625 L 1.890625 -3.203125 L 4.4375 -3.203125 L 4.4375 -2.140625 L 1.890625 -2.140625 L 1.890625 -1.0625 L 4.796875 -1.0625 L 4.796875 0 L 0.53125 0 L 0.53125 -5.34375 L 4.71875 -5.34375 Z M 4.71875 -4.265625" transform="translate(45.02 59.058)"/></g></g></g><g fill="#444"><g><g><path d="M 4.078125 -0.984375 L 1.75 -0.984375 L 1.359375 0 L -0.03125 0 L 2.265625 -5.34375 L 3.65625 -5.34375 L 5.90625 0 L 4.453125 0 Z M 3.6875 -2.015625 L 2.921875 -3.984375 L 2.140625 -2.015625 Z M 3.6875 -2.015625" transform="translate(50.348 59.058)"/></g></g></g><g fill="#444"><g><g><path d="M 1.890625 -1.140625 L 4.15625 -1.140625 L 4.15625 0 L 0.53125 0 L 0.53125 -5.34375 L 1.890625 -5.34375 Z M 1.890625 -1.140625" transform="translate(56.406 59.058)"/></g></g></g><g fill="#444"><g><g><path d="M 0.46875 -3.546875 L 2.015625 -3.546875 C 2.378906 -3.546875 2.664062 -3.46875 2.875 -3.3125 C 3.09375 -3.15625 3.203125 -2.941406 3.203125 -2.671875 C 3.203125 -2.460938 3.144531 -2.285156 3.03125 -2.140625 C 2.925781 -2.003906 2.773438 -1.914062 2.578125 -1.875 C 2.816406 -1.832031 3.003906 -1.726562 3.140625 -1.5625 C 3.273438 -1.40625 3.34375 -1.207031 3.34375 -0.96875 C 3.34375 -0.664062 3.226562 -0.425781 3 -0.25 C 2.769531 -0.0820312 2.453125 0 2.046875 0 L 0.46875 0 Z M 1.0625 -3.015625 L 1.0625 -2.078125 L 1.984375 -2.078125 C 2.171875 -2.078125 2.316406 -2.117188 2.421875 -2.203125 C 2.535156 -2.285156 2.59375 -2.398438 2.59375 -2.546875 C 2.59375 -2.703125 2.535156 -2.816406 2.421875 -2.890625 C 2.316406 -2.972656 2.171875 -3.015625 1.984375 -3.015625 Z M 1.0625 -1.546875 L 1.0625 -0.53125 L 1.984375 -0.53125 C 2.210938 -0.53125 2.394531 -0.570312 2.53125 -0.65625 C 2.664062 -0.75 2.734375 -0.878906 2.734375 -1.046875 C 2.734375 -1.203125 2.664062 -1.320312 2.53125 -1.40625 C 2.394531 -1.5 2.210938 -1.546875 1.984375 -1.546875 Z M 1.0625 -1.546875" transform="translate(11.151 65.41)"/></g></g></g><g fill="#444"><g><g><path d="M 0.71875 -3.046875 C 1.082031 -3.390625 1.53125 -3.5625 2.0625 -3.5625 C 2.59375 -3.5625 3.035156 -3.390625 3.390625 -3.046875 C 3.753906 -2.703125 3.9375 -2.273438 3.9375 -1.765625 C 3.9375 -1.265625 3.753906 -0.835938 3.390625 -0.484375 C 3.035156 -0.140625 2.59375 0.03125 2.0625 0.03125 C 1.53125 0.03125 1.082031 -0.140625 0.71875 -0.484375 C 0.351562 -0.835938 0.171875 -1.265625 0.171875 -1.765625 C 0.171875 -2.273438 0.351562 -2.703125 0.71875 -3.046875 Z M 2.0625 -3.03125 C 1.707031 -3.03125 1.40625 -2.910156 1.15625 -2.671875 C 0.90625 -2.429688 0.78125 -2.132812 0.78125 -1.78125 C 0.78125 -1.425781 0.90625 -1.125 1.15625 -0.875 C 1.40625 -0.632812 1.703125 -0.515625 2.046875 -0.515625 C 2.398438 -0.515625 2.703125 -0.632812 2.953125 -0.875 C 3.203125 -1.125 3.328125 -1.425781 3.328125 -1.78125 C 3.328125 -2.132812 3.203125 -2.429688 2.953125 -2.671875 C 2.703125 -2.910156 2.40625 -3.03125 2.0625 -3.03125 Z M 2.0625 -3.03125" transform="translate(15.245 65.41)"/></g></g></g><g fill="#444"><g><g><path d="M 2.890625 -3.015625 L 1.765625 -3.015625 L 1.765625 0 L 1.171875 0 L 1.171875 -3.015625 L 0.046875 -3.015625 L 0.046875 -3.546875 L 2.890625 -3.546875 Z M 2.890625 -3.015625" transform="translate(19.868 65.41)"/></g></g></g><g fill="#444"><g><g><path d="M 2.890625 -3.015625 L 1.765625 -3.015625 L 1.765625 0 L 1.171875 0 L 1.171875 -3.015625 L 0.046875 -3.015625 L 0.046875 -3.546875 L 2.890625 -3.546875 Z M 2.890625 -3.015625" transform="translate(23.317 65.41)"/></g></g></g><g fill="#444"><g><g><path d="M 4.21875 0 L 3.671875 0 L 3.671875 -2.65625 L 2.546875 -0.375 L 2.15625 -0.375 L 1.03125 -2.65625 L 1.03125 0 L 0.46875 0 L 0.46875 -3.546875 L 1.171875 -3.546875 L 2.34375 -1.1875 L 3.515625 -3.546875 L 4.21875 -3.546875 Z M 4.21875 0" transform="translate(28.584 65.41)"/></g></g></g><g fill="#444"><g><g><path d="M 0.71875 -3.046875 C 1.082031 -3.390625 1.53125 -3.5625 2.0625 -3.5625 C 2.59375 -3.5625 3.035156 -3.390625 3.390625 -3.046875 C 3.753906 -2.703125 3.9375 -2.273438 3.9375 -1.765625 C 3.9375 -1.265625 3.753906 -0.835938 3.390625 -0.484375 C 3.035156 -0.140625 2.59375 0.03125 2.0625 0.03125 C 1.53125 0.03125 1.082031 -0.140625 0.71875 -0.484375 C 0.351562 -0.835938 0.171875 -1.265625 0.171875 -1.765625 C 0.171875 -2.273438 0.351562 -2.703125 0.71875 -3.046875 Z M 2.0625 -3.03125 C 1.707031 -3.03125 1.40625 -2.910156 1.15625 -2.671875 C 0.90625 -2.429688 0.78125 -2.132812 0.78125 -1.78125 C 0.78125 -1.425781 0.90625 -1.125 1.15625 -0.875 C 1.40625 -0.632812 1.703125 -0.515625 2.046875 -0.515625 C 2.398438 -0.515625 2.703125 -0.632812 2.953125 -0.875 C 3.203125 -1.125 3.328125 -1.425781 3.328125 -1.78125 C 3.328125 -2.132812 3.203125 -2.429688 2.953125 -2.671875 C 2.703125 -2.910156 2.40625 -3.03125 2.0625 -3.03125 Z M 2.0625 -3.03125" transform="translate(33.791 65.41)"/></g></g></g><g fill="#444"><g><g><path d="M 3.546875 0 L 2.953125 0 L 1.0625 -2.546875 L 1.0625 0 L 0.46875 0 L 0.46875 -3.546875 L 1.0625 -3.546875 L 2.953125 -1 L 2.953125 -3.546875 L 3.546875 -3.546875 Z M 3.546875 0" transform="translate(38.413 65.41)"/></g></g></g><g fill="#444"><g><g><path d="M 3.484375 -3.546875 L 3.484375 -1.46875 C 3.484375 -1.007812 3.347656 -0.644531 3.078125 -0.375 C 2.804688 -0.101562 2.425781 0.03125 1.9375 0.03125 C 1.457031 0.03125 1.078125 -0.101562 0.796875 -0.375 C 0.523438 -0.644531 0.390625 -1.007812 0.390625 -1.46875 L 0.390625 -3.546875 L 1 -3.546875 L 1 -1.46875 C 1 -1.175781 1.082031 -0.941406 1.25 -0.765625 C 1.425781 -0.597656 1.660156 -0.515625 1.953125 -0.515625 C 2.242188 -0.515625 2.472656 -0.597656 2.640625 -0.765625 C 2.804688 -0.929688 2.890625 -1.164062 2.890625 -1.46875 L 2.890625 -3.546875 Z M 3.484375 -3.546875" transform="translate(42.945 65.41)"/></g></g></g><g fill="#444"><g><g><path d="M 4.21875 0 L 3.671875 0 L 3.671875 -2.65625 L 2.546875 -0.375 L 2.15625 -0.375 L 1.03125 -2.65625 L 1.03125 0 L 0.46875 0 L 0.46875 -3.546875 L 1.171875 -3.546875 L 2.34375 -1.1875 L 3.515625 -3.546875 L 4.21875 -3.546875 Z M 4.21875 0" transform="translate(47.333 65.41)"/></g></g></g><g fill="#444"><g><g><path d="M 3 -3.015625 L 1.0625 -3.015625 L 1.0625 -2.0625 L 2.796875 -2.0625 L 2.796875 -1.515625 L 1.0625 -1.515625 L 1.0625 -0.53125 L 3.0625 -0.53125 L 3.0625 0 L 0.46875 0 L 0.46875 -3.546875 L 3 -3.546875 Z M 3 -3.015625" transform="translate(52.54 65.41)"/></g></g></g><g fill="#444"><g><g><path d="M 3.546875 0 L 2.953125 0 L 1.0625 -2.546875 L 1.0625 0 L 0.46875 0 L 0.46875 -3.546875 L 1.0625 -3.546875 L 2.953125 -1 L 2.953125 -3.546875 L 3.546875 -3.546875 Z M 3.546875 0" transform="translate(56.38 65.41)"/></g></g></g><g fill="#444"><g><g><path d="M 2.890625 -3.015625 L 1.765625 -3.015625 L 1.765625 0 L 1.171875 0 L 1.171875 -3.015625 L 0.046875 -3.015625 L 0.046875 -3.546875 L 2.890625 -3.546875 Z M 2.890625 -3.015625" transform="translate(60.911 65.41)"/></g></g></g></svg>