<svg xmlns="http://www.w3.org/2000/svg" width="187.5" viewBox="0 0 187.5 187.5" height="187.5" version="1.0"><defs><clipPath id="a"><path d="M 33.097656 18.75 L 154.351562 18.75 L 154.351562 172.5 L 33.097656 172.5 Z M 33.097656 18.75"/></clipPath></defs><g clip-path="url(#a)"><path fill="#000C26" d="M 41.140625 26.816406 L 41.140625 128.941406 L 93.71875 162.941406 L 146.308594 128.941406 L 146.308594 26.816406 Z M 33.097656 22.78125 L 33.097656 18.75 L 154.351562 18.75 L 154.351562 133.320312 L 93.71875 172.515625 L 33.097656 133.320312 L 33.097656 22.78125"/></g><path fill="#000C26" d="M 64.976562 51.292969 L 122.46875 51.292969 L 122.46875 59.359375 L 64.976562 59.359375 L 64.976562 51.292969"/><path fill="#000C26" d="M 50.730469 39.175781 L 136.675781 39.175781 L 136.675781 47.242188 L 50.730469 47.242188 L 50.730469 39.175781"/><path fill="#000C26" d="M 116.722656 77.601562 L 116.722656 155.417969 L 108.679688 155.417969 L 108.679688 77.601562 Z M 64.765625 71.425781 C 84.070312 71.425781 103.375 71.425781 122.679688 71.425781 C 124.316406 71.425781 125.800781 72.089844 126.875 73.167969 C 127.949219 74.246094 128.613281 75.738281 128.613281 77.394531 C 128.613281 79.039062 127.949219 80.527344 126.875 81.601562 C 125.800781 82.679688 124.316406 83.347656 122.675781 83.347656 L 122.46875 83.34375 L 122.46875 91.410156 L 122.675781 91.414062 C 126.535156 91.414062 130.03125 89.84375 132.5625 87.304688 C 135.089844 84.769531 136.65625 81.265625 136.65625 77.394531 C 136.65625 73.53125 135.089844 70.03125 132.5625 67.496094 C 130.03125 64.960938 126.535156 63.390625 122.679688 63.390625 L 64.765625 63.390625 C 60.910156 63.390625 57.414062 64.960938 54.886719 67.496094 C 52.355469 70.03125 50.792969 73.53125 50.792969 77.394531 C 50.792969 81.265625 52.355469 84.769531 54.886719 87.304688 C 57.417969 89.84375 60.910156 91.414062 64.773438 91.414062 L 64.988281 91.410156 L 64.988281 83.34375 L 64.773438 83.347656 C 63.132812 83.347656 61.648438 82.679688 60.574219 81.601562 C 59.5 80.527344 58.835938 79.039062 58.835938 77.394531 C 58.835938 75.738281 59.5 74.246094 60.574219 73.167969 C 61.648438 72.09375 63.128906 71.425781 64.765625 71.425781 Z M 89.78125 77.601562 L 89.78125 166.226562 L 97.746094 166.351562 L 97.746094 77.601562 Z M 78.753906 77.601562 L 78.753906 155.417969 L 70.710938 155.417969 L 70.710938 77.601562 L 78.753906 77.601562"/></svg>