<svg xmlns="http://www.w3.org/2000/svg" width="187.5" viewBox="0 0 187.5 187.5" height="187.5" version="1.0"><defs><clipPath id="a"><path d="M 39.78125 15.351562 L 147.550781 15.351562 L 147.550781 151.851562 L 39.78125 151.851562 Z M 39.78125 15.351562"/></clipPath></defs><g clip-path="url(#a)"><path fill="#E4C061" d="M 46.929688 22.511719 L 46.929688 113.179688 L 93.660156 143.363281 L 140.398438 113.179688 L 140.398438 22.511719 Z M 39.78125 18.929688 L 39.78125 15.351562 L 147.546875 15.351562 L 147.546875 117.066406 L 93.660156 151.867188 L 39.78125 117.066406 L 39.78125 18.929688"/></g><path fill="#E4C061" d="M 68.109375 44.242188 L 119.210938 44.242188 L 119.210938 51.40625 L 68.109375 51.40625 L 68.109375 44.242188"/><path fill="#E4C061" d="M 55.449219 33.484375 L 131.839844 33.484375 L 131.839844 40.648438 L 55.449219 40.648438 L 55.449219 33.484375"/><path fill="#E4C061" d="M 114.105469 67.597656 L 114.105469 136.6875 L 106.957031 136.6875 L 106.957031 67.597656 Z M 67.925781 62.117188 C 85.085938 62.117188 102.242188 62.117188 119.398438 62.117188 C 120.855469 62.117188 122.171875 62.707031 123.128906 63.664062 C 124.082031 64.621094 124.671875 65.945312 124.671875 67.414062 C 124.671875 68.875 124.082031 70.195312 123.128906 71.152344 C 122.171875 72.109375 120.851562 72.699219 119.394531 72.699219 L 119.210938 72.695312 L 119.210938 79.859375 L 119.394531 79.863281 C 122.824219 79.863281 125.929688 78.46875 128.183594 76.214844 C 130.429688 73.960938 131.820312 70.851562 131.820312 67.414062 C 131.820312 63.988281 130.429688 60.878906 128.183594 58.628906 C 125.933594 56.375 122.828125 54.980469 119.398438 54.980469 L 67.925781 54.980469 C 64.496094 54.984375 61.390625 56.375 59.144531 58.628906 C 56.894531 60.878906 55.507812 63.988281 55.507812 67.414062 C 55.507812 70.851562 56.894531 73.960938 59.144531 76.214844 C 61.394531 78.46875 64.5 79.863281 67.929688 79.863281 L 68.121094 79.859375 L 68.121094 72.695312 L 67.929688 72.699219 C 66.472656 72.699219 65.15625 72.109375 64.199219 71.152344 C 63.246094 70.195312 62.65625 68.875 62.65625 67.414062 C 62.65625 65.945312 63.246094 64.621094 64.199219 63.664062 C 65.152344 62.707031 66.472656 62.117188 67.925781 62.117188 Z M 90.160156 67.597656 L 90.160156 146.28125 L 97.238281 146.390625 L 97.238281 67.597656 Z M 80.359375 67.597656 L 80.359375 136.6875 L 73.210938 136.6875 L 73.210938 67.597656 L 80.359375 67.597656"/><g fill="#444"><g><g><path d="M 23.984375 0 L 19.484375 0 L 19.46875 -13 L 14.65625 -2 L 11.34375 -2 L 6.546875 -13 L 6.546875 0 L 2 0 L 2 -20.03125 L 7.578125 -20.03125 L 13 -8.109375 L 18.4375 -20.03125 L 23.984375 -20.03125 Z M 23.984375 0" transform="translate(6.862 179.466)"/></g></g></g><g fill="#444"><g><g><path d="M 11.484375 -20.171875 C 14.585938 -20.171875 17.164062 -19.203125 19.21875 -17.265625 C 21.28125 -15.335938 22.3125 -12.925781 22.3125 -10.03125 C 22.3125 -7.113281 21.28125 -4.671875 19.21875 -2.703125 C 17.15625 -0.742188 14.578125 0.234375 11.484375 0.234375 C 8.398438 0.234375 5.828125 -0.738281 3.765625 -2.6875 C 1.710938 -4.644531 0.6875 -7.09375 0.6875 -10.03125 C 0.6875 -12.945312 1.710938 -15.363281 3.765625 -17.28125 C 5.828125 -19.207031 8.398438 -20.171875 11.484375 -20.171875 Z M 11.546875 -15.921875 C 9.984375 -15.921875 8.648438 -15.351562 7.546875 -14.21875 C 6.441406 -13.082031 5.890625 -11.675781 5.890625 -10 C 5.890625 -8.320312 6.445312 -6.90625 7.5625 -5.75 C 8.675781 -4.601562 10.003906 -4.03125 11.546875 -4.03125 C 13.085938 -4.03125 14.394531 -4.601562 15.46875 -5.75 C 16.550781 -6.90625 17.09375 -8.320312 17.09375 -10 C 17.09375 -11.675781 16.550781 -13.082031 15.46875 -14.21875 C 14.394531 -15.351562 13.085938 -15.921875 11.546875 -15.921875 Z M 11.546875 -15.921875" transform="translate(33.576 179.466)"/></g></g></g><g fill="#444"><g><g><path d="M 20.46875 0 L 15.96875 0 L 6.765625 -12.3125 L 6.765625 0 L 2 0 L 2 -20 L 6.484375 -20 L 15.71875 -7.65625 L 15.71875 -20 L 20.46875 -20 Z M 20.46875 0" transform="translate(57.29 179.466)"/></g></g></g><g fill="#444"><g><g><path d="M 20 -20 L 20 -8.40625 C 20 -5.75 19.179688 -3.644531 17.546875 -2.09375 C 15.910156 -0.539062 13.691406 0.234375 10.890625 0.234375 C 8.066406 0.234375 5.820312 -0.539062 4.15625 -2.09375 C 2.488281 -3.644531 1.65625 -5.75 1.65625 -8.40625 L 1.65625 -20 L 6.75 -20 L 6.75 -8.40625 C 6.75 -7.070312 7.132812 -6.007812 7.90625 -5.21875 C 8.675781 -4.425781 9.679688 -4.03125 10.921875 -4.03125 C 12.140625 -4.03125 13.113281 -4.421875 13.84375 -5.203125 C 14.582031 -5.984375 14.953125 -7.050781 14.953125 -8.40625 L 14.953125 -20 Z M 20 -20" transform="translate(80.46 179.466)"/></g></g></g><g fill="#444"><g><g><path d="M 9.6875 -20.234375 C 12.675781 -20.234375 15.304688 -19.488281 17.578125 -18 L 15.65625 -14.03125 C 14.613281 -14.644531 13.488281 -15.144531 12.28125 -15.53125 C 11.082031 -15.925781 10.078125 -16.125 9.265625 -16.125 C 7.796875 -16.125 7.0625 -15.632812 7.0625 -14.65625 C 7.0625 -14.03125 7.421875 -13.523438 8.140625 -13.140625 C 8.867188 -12.765625 9.75 -12.4375 10.78125 -12.15625 C 11.820312 -11.882812 12.859375 -11.550781 13.890625 -11.15625 C 14.929688 -10.769531 15.8125 -10.132812 16.53125 -9.25 C 17.257812 -8.375 17.625 -7.269531 17.625 -5.9375 C 17.625 -4.019531 16.875 -2.519531 15.375 -1.4375 C 13.875 -0.363281 11.957031 0.171875 9.625 0.171875 C 7.96875 0.171875 6.328125 -0.113281 4.703125 -0.6875 C 3.085938 -1.257812 1.679688 -2.039062 0.484375 -3.03125 L 2.453125 -6.9375 C 3.460938 -6.0625 4.65625 -5.34375 6.03125 -4.78125 C 7.40625 -4.21875 8.625 -3.9375 9.6875 -3.9375 C 10.507812 -3.9375 11.144531 -4.082031 11.59375 -4.375 C 12.050781 -4.675781 12.28125 -5.113281 12.28125 -5.6875 C 12.28125 -6.238281 12.019531 -6.695312 11.5 -7.0625 C 10.976562 -7.4375 10.328125 -7.710938 9.546875 -7.890625 C 8.765625 -8.078125 7.914062 -8.320312 7 -8.625 C 6.082031 -8.9375 5.234375 -9.269531 4.453125 -9.625 C 3.671875 -9.988281 3.019531 -10.566406 2.5 -11.359375 C 1.976562 -12.148438 1.71875 -13.097656 1.71875 -14.203125 C 1.71875 -16.035156 2.445312 -17.5 3.90625 -18.59375 C 5.363281 -19.6875 7.289062 -20.234375 9.6875 -20.234375 Z M 9.6875 -20.234375" transform="translate(102.832 179.466)"/></g></g></g><g fill="#444"><g><g><path d="M 17.65625 -16 L 7.09375 -16 L 7.09375 -12.03125 L 16.625 -12.03125 L 16.625 -8.03125 L 7.09375 -8.03125 L 7.09375 -4 L 17.96875 -4 L 17.96875 0 L 2 0 L 2 -20 L 17.65625 -20 Z M 17.65625 -16" transform="translate(121.946 179.466)"/></g></g></g><g fill="#444"><g><g><path d="M 15.296875 -3.6875 L 6.546875 -3.6875 L 5.09375 0 L -0.140625 0 L 8.484375 -20 L 13.71875 -20 L 22.140625 0 L 16.71875 0 Z M 13.796875 -7.546875 L 10.953125 -14.953125 L 8.03125 -7.546875 Z M 13.796875 -7.546875" transform="translate(141.917 179.466)"/></g></g></g><g fill="#444"><g><g><path d="M 7.09375 -4.265625 L 15.578125 -4.265625 L 15.578125 0 L 2 0 L 2 -20 L 7.09375 -20 Z M 7.09375 -4.265625" transform="translate(164.631 179.466)"/></g></g></g></svg>