<svg xmlns="http://www.w3.org/2000/svg" width="375" viewBox="0 0 375 375" height="375" version="1.0"><defs><clipPath id="a"><path d="M 139.070312 96.710938 L 235.617188 96.710938 L 235.617188 218.960938 L 139.070312 218.960938 Z M 139.070312 96.710938"/></clipPath></defs><g clip-path="url(#a)"><path fill="#E4C061" d="M 145.476562 103.121094 L 145.476562 184.328125 L 187.339844 211.359375 L 229.214844 184.328125 L 229.214844 103.121094 Z M 139.070312 99.914062 L 139.070312 96.707031 L 235.617188 96.707031 L 235.617188 187.808594 L 187.339844 218.972656 L 139.070312 187.808594 L 139.070312 99.914062"/></g><path fill="#E4C061" d="M 164.453125 122.585938 L 210.234375 122.585938 L 210.234375 129 L 164.453125 129 L 164.453125 122.585938"/><path fill="#E4C061" d="M 153.109375 112.949219 L 221.546875 112.949219 L 221.546875 119.363281 L 153.109375 119.363281 L 153.109375 112.949219"/><path fill="#E4C061" d="M 205.65625 143.503906 L 205.65625 205.378906 L 199.253906 205.378906 L 199.253906 143.503906 Z M 164.285156 138.59375 C 179.65625 138.59375 195.027344 138.59375 210.398438 138.59375 C 211.703125 138.59375 212.886719 139.121094 213.742188 139.976562 C 214.59375 140.835938 215.125 142.023438 215.125 143.339844 C 215.125 144.644531 214.59375 145.828125 213.742188 146.683594 C 212.882812 147.542969 211.703125 148.074219 210.398438 148.074219 L 210.230469 148.070312 L 210.230469 154.484375 L 210.398438 154.484375 C 213.46875 154.484375 216.253906 153.238281 218.269531 151.21875 C 220.28125 149.203125 221.527344 146.417969 221.527344 143.339844 C 221.527344 140.269531 220.28125 137.484375 218.269531 135.46875 C 216.253906 133.453125 213.46875 132.203125 210.398438 132.203125 L 164.285156 132.203125 C 161.214844 132.203125 158.433594 133.453125 156.417969 135.46875 C 154.40625 137.484375 153.160156 140.269531 153.160156 143.339844 C 153.160156 146.417969 154.40625 149.203125 156.421875 151.21875 C 158.433594 153.238281 161.214844 154.484375 164.292969 154.484375 L 164.460938 154.484375 L 164.460938 148.070312 L 164.292969 148.074219 C 162.984375 148.074219 161.804688 147.542969 160.949219 146.683594 C 160.09375 145.828125 159.5625 144.644531 159.5625 143.339844 C 159.5625 142.023438 160.09375 140.835938 160.945312 139.976562 C 161.800781 139.125 162.984375 138.59375 164.285156 138.59375 Z M 184.203125 143.503906 L 184.203125 213.972656 L 190.546875 214.070312 L 190.546875 143.503906 Z M 175.425781 143.503906 L 175.425781 205.378906 L 169.019531 205.378906 L 169.019531 143.503906 L 175.425781 143.503906"/><g fill="#444"><g><g><path d="M 20.140625 0 L 16.375 0 L 16.34375 -10.921875 L 12.3125 -1.6875 L 9.53125 -1.6875 L 5.5 -10.921875 L 5.5 0 L 1.6875 0 L 1.6875 -16.828125 L 6.359375 -16.828125 L 10.921875 -6.8125 L 15.484375 -16.828125 L 20.140625 -16.828125 Z M 20.140625 0" transform="translate(114.51 255.39)"/></g></g></g><g fill="#444"><g><g><path d="M 9.640625 -16.9375 C 12.253906 -16.9375 14.425781 -16.125 16.15625 -14.5 C 17.882812 -12.882812 18.75 -10.859375 18.75 -8.421875 C 18.75 -5.972656 17.878906 -3.925781 16.140625 -2.28125 C 14.398438 -0.632812 12.234375 0.1875 9.640625 0.1875 C 7.054688 0.1875 4.898438 -0.628906 3.171875 -2.265625 C 1.441406 -3.910156 0.578125 -5.960938 0.578125 -8.421875 C 0.578125 -10.867188 1.441406 -12.898438 3.171875 -14.515625 C 4.898438 -16.128906 7.054688 -16.9375 9.640625 -16.9375 Z M 9.703125 -13.375 C 8.390625 -13.375 7.265625 -12.894531 6.328125 -11.9375 C 5.398438 -10.988281 4.9375 -9.804688 4.9375 -8.390625 C 4.9375 -6.984375 5.40625 -5.796875 6.34375 -4.828125 C 7.28125 -3.867188 8.394531 -3.390625 9.6875 -3.390625 C 10.988281 -3.390625 12.09375 -3.867188 13 -4.828125 C 13.90625 -5.796875 14.359375 -6.984375 14.359375 -8.390625 C 14.359375 -9.804688 13.90625 -10.988281 13 -11.9375 C 12.09375 -12.894531 10.992188 -13.375 9.703125 -13.375 Z M 9.703125 -13.375" transform="translate(136.951 255.39)"/></g></g></g><g fill="#444"><g><g><path d="M 17.1875 0 L 13.421875 0 L 5.6875 -10.34375 L 5.6875 0 L 1.6875 0 L 1.6875 -16.796875 L 5.453125 -16.796875 L 13.203125 -6.4375 L 13.203125 -16.796875 L 17.1875 -16.796875 Z M 17.1875 0" transform="translate(156.871 255.39)"/></g></g></g><g fill="#444"><g><g><path d="M 16.796875 -16.796875 L 16.796875 -7.0625 C 16.796875 -4.832031 16.109375 -3.066406 14.734375 -1.765625 C 13.359375 -0.460938 11.492188 0.1875 9.140625 0.1875 C 6.773438 0.1875 4.890625 -0.460938 3.484375 -1.765625 C 2.085938 -3.066406 1.390625 -4.832031 1.390625 -7.0625 L 1.390625 -16.796875 L 5.65625 -16.796875 L 5.65625 -7.0625 C 5.65625 -5.9375 5.976562 -5.039062 6.625 -4.375 C 7.28125 -3.71875 8.128906 -3.390625 9.171875 -3.390625 C 10.191406 -3.390625 11.007812 -3.71875 11.625 -4.375 C 12.238281 -5.03125 12.546875 -5.925781 12.546875 -7.0625 L 12.546875 -16.796875 Z M 16.796875 -16.796875" transform="translate(176.335 255.39)"/></g></g></g><g fill="#444"><g><g><path d="M 8.140625 -16.984375 C 10.648438 -16.984375 12.859375 -16.363281 14.765625 -15.125 L 13.15625 -11.78125 C 12.269531 -12.289062 11.320312 -12.707031 10.3125 -13.03125 C 9.3125 -13.363281 8.46875 -13.53125 7.78125 -13.53125 C 6.539062 -13.53125 5.921875 -13.125 5.921875 -12.3125 C 5.921875 -11.78125 6.222656 -11.351562 6.828125 -11.03125 C 7.441406 -10.71875 8.1875 -10.441406 9.0625 -10.203125 C 9.9375 -9.972656 10.804688 -9.691406 11.671875 -9.359375 C 12.546875 -9.035156 13.285156 -8.503906 13.890625 -7.765625 C 14.503906 -7.035156 14.8125 -6.109375 14.8125 -4.984375 C 14.8125 -3.367188 14.175781 -2.109375 12.90625 -1.203125 C 11.644531 -0.304688 10.039062 0.140625 8.09375 0.140625 C 6.695312 0.140625 5.316406 -0.0976562 3.953125 -0.578125 C 2.597656 -1.054688 1.414062 -1.710938 0.40625 -2.546875 L 2.0625 -5.828125 C 2.914062 -5.097656 3.914062 -4.492188 5.0625 -4.015625 C 6.21875 -3.546875 7.242188 -3.3125 8.140625 -3.3125 C 8.828125 -3.3125 9.359375 -3.4375 9.734375 -3.6875 C 10.117188 -3.9375 10.3125 -4.300781 10.3125 -4.78125 C 10.3125 -5.238281 10.09375 -5.625 9.65625 -5.9375 C 9.21875 -6.25 8.671875 -6.476562 8.015625 -6.625 C 7.359375 -6.78125 6.644531 -6.984375 5.875 -7.234375 C 5.113281 -7.492188 4.40625 -7.773438 3.75 -8.078125 C 3.09375 -8.390625 2.539062 -8.875 2.09375 -9.53125 C 1.65625 -10.195312 1.4375 -10.992188 1.4375 -11.921875 C 1.4375 -13.460938 2.046875 -14.691406 3.265625 -15.609375 C 4.492188 -16.523438 6.117188 -16.984375 8.140625 -16.984375 Z M 8.140625 -16.984375" transform="translate(195.127 255.39)"/></g></g></g><g fill="#444"><g><g><path d="M 14.828125 -13.4375 L 5.953125 -13.4375 L 5.953125 -10.109375 L 13.96875 -10.109375 L 13.96875 -6.75 L 5.953125 -6.75 L 5.953125 -3.359375 L 15.09375 -3.359375 L 15.09375 0 L 1.6875 0 L 1.6875 -16.796875 L 14.828125 -16.796875 Z M 14.828125 -13.4375" transform="translate(211.183 255.39)"/></g></g></g><g fill="#444"><g><g><path d="M 12.84375 -3.09375 L 5.5 -3.09375 L 4.265625 0 L -0.125 0 L 7.125 -16.796875 L 11.515625 -16.796875 L 18.59375 0 L 14.046875 0 Z M 11.59375 -6.34375 L 9.1875 -12.546875 L 6.75 -6.34375 Z M 11.59375 -6.34375" transform="translate(227.96 255.39)"/></g></g></g><g fill="#444"><g><g><path d="M 5.953125 -3.578125 L 13.078125 -3.578125 L 13.078125 0 L 1.6875 0 L 1.6875 -16.796875 L 5.953125 -16.796875 Z M 5.953125 -3.578125" transform="translate(247.04 255.39)"/></g></g></g><g fill="#444"><g><g><path d="M 1.46875 -11.203125 L 6.34375 -11.203125 C 7.5 -11.203125 8.410156 -10.953125 9.078125 -10.453125 C 9.753906 -9.960938 10.09375 -9.28125 10.09375 -8.40625 C 10.09375 -7.769531 9.914062 -7.226562 9.5625 -6.78125 C 9.21875 -6.34375 8.738281 -6.050781 8.125 -5.90625 C 8.875 -5.78125 9.460938 -5.460938 9.890625 -4.953125 C 10.316406 -4.453125 10.53125 -3.828125 10.53125 -3.078125 C 10.53125 -2.109375 10.164062 -1.351562 9.4375 -0.8125 C 8.71875 -0.269531 7.722656 0 6.453125 0 L 1.46875 0 Z M 3.359375 -9.515625 L 3.359375 -6.5625 L 6.234375 -6.5625 C 6.835938 -6.5625 7.304688 -6.691406 7.640625 -6.953125 C 7.984375 -7.222656 8.15625 -7.59375 8.15625 -8.0625 C 8.15625 -8.53125 7.988281 -8.890625 7.65625 -9.140625 C 7.320312 -9.390625 6.847656 -9.515625 6.234375 -9.515625 Z M 3.359375 -4.890625 L 3.359375 -1.6875 L 6.234375 -1.6875 C 6.984375 -1.6875 7.5625 -1.828125 7.96875 -2.109375 C 8.382812 -2.390625 8.59375 -2.789062 8.59375 -3.3125 C 8.59375 -3.800781 8.382812 -4.1875 7.96875 -4.46875 C 7.550781 -4.75 6.972656 -4.890625 6.234375 -4.890625 Z M 3.359375 -4.890625" transform="translate(104.523 275.39)"/></g></g></g><g fill="#444"><g><g><path d="M 2.25 -9.625 C 3.394531 -10.707031 4.800781 -11.25 6.46875 -11.25 C 8.144531 -11.25 9.554688 -10.707031 10.703125 -9.625 C 11.847656 -8.539062 12.421875 -7.195312 12.421875 -5.59375 C 12.421875 -4 11.847656 -2.65625 10.703125 -1.5625 C 9.554688 -0.46875 8.144531 0.078125 6.46875 0.078125 C 4.800781 0.078125 3.394531 -0.46875 2.25 -1.5625 C 1.113281 -2.65625 0.546875 -4 0.546875 -5.59375 C 0.546875 -7.195312 1.113281 -8.539062 2.25 -9.625 Z M 6.5 -9.546875 C 5.382812 -9.546875 4.429688 -9.164062 3.640625 -8.40625 C 2.859375 -7.644531 2.46875 -6.707031 2.46875 -5.59375 C 2.46875 -4.488281 2.863281 -3.546875 3.65625 -2.765625 C 4.445312 -1.992188 5.390625 -1.609375 6.484375 -1.609375 C 7.585938 -1.609375 8.53125 -1.992188 9.3125 -2.765625 C 10.09375 -3.546875 10.484375 -4.488281 10.484375 -5.59375 C 10.484375 -6.707031 10.09375 -7.644531 9.3125 -8.40625 C 8.53125 -9.164062 7.59375 -9.546875 6.5 -9.546875 Z M 6.5 -9.546875" transform="translate(117.416 275.39)"/></g></g></g><g fill="#444"><g><g><path d="M 9.125 -9.5 L 5.5625 -9.5 L 5.5625 0 L 3.6875 0 L 3.6875 -9.5 L 0.140625 -9.5 L 0.140625 -11.203125 L 9.125 -11.203125 Z M 9.125 -9.5" transform="translate(131.973 275.39)"/></g></g></g><g fill="#444"><g><g><path d="M 9.125 -9.5 L 5.5625 -9.5 L 5.5625 0 L 3.6875 0 L 3.6875 -9.5 L 0.140625 -9.5 L 0.140625 -11.203125 L 9.125 -11.203125 Z M 9.125 -9.5" transform="translate(142.835 275.39)"/></g></g></g><g fill="#444"><g><g><path d="M 13.3125 0 L 11.5625 0 L 11.546875 -8.375 L 8.015625 -1.171875 L 6.78125 -1.171875 L 3.25 -8.375 L 3.25 0 L 1.46875 0 L 1.46875 -11.203125 L 3.71875 -11.203125 L 7.40625 -3.765625 L 11.09375 -11.203125 L 13.3125 -11.203125 Z M 13.3125 0" transform="translate(159.423 275.39)"/></g></g></g><g fill="#444"><g><g><path d="M 2.25 -9.625 C 3.394531 -10.707031 4.800781 -11.25 6.46875 -11.25 C 8.144531 -11.25 9.554688 -10.707031 10.703125 -9.625 C 11.847656 -8.539062 12.421875 -7.195312 12.421875 -5.59375 C 12.421875 -4 11.847656 -2.65625 10.703125 -1.5625 C 9.554688 -0.46875 8.144531 0.078125 6.46875 0.078125 C 4.800781 0.078125 3.394531 -0.46875 2.25 -1.5625 C 1.113281 -2.65625 0.546875 -4 0.546875 -5.59375 C 0.546875 -7.195312 1.113281 -8.539062 2.25 -9.625 Z M 6.5 -9.546875 C 5.382812 -9.546875 4.429688 -9.164062 3.640625 -8.40625 C 2.859375 -7.644531 2.46875 -6.707031 2.46875 -5.59375 C 2.46875 -4.488281 2.863281 -3.546875 3.65625 -2.765625 C 4.445312 -1.992188 5.390625 -1.609375 6.484375 -1.609375 C 7.585938 -1.609375 8.53125 -1.992188 9.3125 -2.765625 C 10.09375 -3.546875 10.484375 -4.488281 10.484375 -5.59375 C 10.484375 -6.707031 10.09375 -7.644531 9.3125 -8.40625 C 8.53125 -9.164062 7.59375 -9.546875 6.5 -9.546875 Z M 6.5 -9.546875" transform="translate(175.82 275.39)"/></g></g></g><g fill="#444"><g><g><path d="M 11.1875 0 L 9.328125 0 L 3.359375 -8.03125 L 3.359375 0 L 1.46875 0 L 1.46875 -11.203125 L 3.328125 -11.203125 L 9.328125 -3.15625 L 9.328125 -11.203125 L 11.1875 -11.203125 Z M 11.1875 0" transform="translate(190.377 275.39)"/></g></g></g><g fill="#444"><g><g><path d="M 10.984375 -11.203125 L 10.984375 -4.640625 C 10.984375 -3.179688 10.550781 -2.03125 9.6875 -1.1875 C 8.832031 -0.34375 7.644531 0.078125 6.125 0.078125 C 4.613281 0.078125 3.421875 -0.34375 2.546875 -1.1875 C 1.679688 -2.03125 1.25 -3.179688 1.25 -4.640625 L 1.25 -11.203125 L 3.140625 -11.203125 L 3.140625 -4.640625 C 3.140625 -3.703125 3.40625 -2.960938 3.9375 -2.421875 C 4.476562 -1.878906 5.210938 -1.609375 6.140625 -1.609375 C 7.054688 -1.609375 7.78125 -1.875 8.3125 -2.40625 C 8.84375 -2.945312 9.109375 -3.691406 9.109375 -4.640625 L 9.109375 -11.203125 Z M 10.984375 -11.203125" transform="translate(204.646 275.39)"/></g></g></g><g fill="#444"><g><g><path d="M 13.3125 0 L 11.5625 0 L 11.546875 -8.375 L 8.015625 -1.171875 L 6.78125 -1.171875 L 3.25 -8.375 L 3.25 0 L 1.46875 0 L 1.46875 -11.203125 L 3.71875 -11.203125 L 7.40625 -3.765625 L 11.09375 -11.203125 L 13.3125 -11.203125 Z M 13.3125 0" transform="translate(218.467 275.39)"/></g></g></g><g fill="#444"><g><g><path d="M 9.46875 -9.5 L 3.359375 -9.5 L 3.359375 -6.484375 L 8.828125 -6.484375 L 8.828125 -4.78125 L 3.359375 -4.78125 L 3.359375 -1.703125 L 9.65625 -1.703125 L 9.65625 0 L 1.46875 0 L 1.46875 -11.203125 L 9.46875 -11.203125 Z M 9.46875 -9.5" transform="translate(234.863 275.39)"/></g></g></g><g fill="#444"><g><g><path d="M 11.1875 0 L 9.328125 0 L 3.359375 -8.03125 L 3.359375 0 L 1.46875 0 L 1.46875 -11.203125 L 3.328125 -11.203125 L 9.328125 -3.15625 L 9.328125 -11.203125 L 11.1875 -11.203125 Z M 11.1875 0" transform="translate(246.957 275.39)"/></g></g></g><g fill="#444"><g><g><path d="M 9.125 -9.5 L 5.5625 -9.5 L 5.5625 0 L 3.6875 0 L 3.6875 -9.5 L 0.140625 -9.5 L 0.140625 -11.203125 L 9.125 -11.203125 Z M 9.125 -9.5" transform="translate(261.226 275.39)"/></g></g></g></svg>